<?xml version="1.0" standalone="no"?>
<!DOCTYPE svg PUBLIC "-//W3C//DTD SVG 20010904//EN"
 "http://www.w3.org/TR/2001/REC-SVG-20010904/DTD/svg10.dtd">
<svg version="1.0" xmlns="http://www.w3.org/2000/svg"
 width="133px" height="31px" viewBox="0 0 500.000000 500.000000"
 preserveAspectRatio="xMidYMid meet">

<g transform="translate(0.000000,500.000000) scale(0.100000,-0.100000)"
fill="#000000" stroke="none">
<path d="M0 2500 l0 -2500 2500 0 2500 0 0 2500 0 2500 -2500 0 -2500 0 0
-2500z m3737 1177 c19 -22 33 -48 34 -64 3 -78 -12 -112 -64 -143 -113 -70
-252 62 -187 177 32 57 64 74 129 70 47 -3 59 -9 88 -40z m-1906 -86 c6 10 9
5 9 -16 l0 -30 -20 25 c-11 14 -20 30 -19 35 0 6 4 2 10 -9 9 -15 13 -16 20
-5z m86 -28 c-3 -10 -5 -2 -5 17 0 19 2 27 5 18 2 -10 2 -26 0 -35z m90 0 c-3
-10 -5 -2 -5 17 0 19 2 27 5 18 2 -10 2 -26 0 -35z m133 -7 c0 -3 -5 -6 -11
-6 -5 0 -8 4 -5 9 3 5 -1 14 -9 21 -8 7 -15 17 -15 23 0 5 9 -2 20 -16 11 -14
20 -28 20 -31z m69 32 c-1 -17 -2 -19 -6 -5 -6 23 -23 22 -23 -2 0 -11 8 -22
18 -24 13 -4 11 -5 -5 -6 -18 -1 -23 4 -23 22 0 27 7 37 27 37 7 0 12 -10 12
-22z m299 15 c-10 -2 -18 -13 -18 -23 0 -10 8 -21 18 -23 16 -4 16 -5 -1 -6
-20 -1 -32 21 -23 44 3 8 13 14 23 14 17 -1 17 -2 1 -6z m389 -33 c-13 -18
-15 -19 -21 -5 -3 9 -2 13 3 10 5 -3 13 5 17 17 4 13 9 17 11 11 3 -7 -2 -22
-10 -33z m-510 -7 c-3 -10 -5 -4 -5 12 0 17 2 24 5 18 2 -7 2 -21 0 -30z m225
12 c3 -14 1 -25 -3 -25 -5 0 -9 11 -9 25 0 14 2 25 4 25 2 0 6 -11 8 -25z
m-755 -17 c-3 -7 -5 -2 -5 12 0 14 2 19 5 13 2 -7 2 -19 0 -25z m37 0 c7 -5 4
-8 -6 -8 -12 0 -18 7 -17 23 0 15 2 17 6 7 3 -8 11 -18 17 -22z m69 16 c-2 -7
4 -14 14 -17 10 -3 7 -4 -9 -4 -30 1 -47 33 -18 33 10 0 16 -6 13 -12z m87 -4
c0 -11 -7 -20 -15 -20 -18 0 -19 12 -3 28 16 16 18 15 18 -8z m40 -11 c0 -5
-8 -9 -17 -9 -15 0 -16 2 -3 10 10 6 11 10 3 10 -7 0 -13 5 -13 11 0 8 5 8 15
-1 8 -7 15 -16 15 -21z m170 19 c0 -4 -8 -8 -17 -8 -16 0 -16 -2 -3 -11 13 -9
13 -10 0 -6 -23 6 -24 33 0 33 11 0 20 -4 20 -8z m17 -20 c-3 -7 -5 -2 -5 12
0 14 2 19 5 13 2 -7 2 -19 0 -25z m46 16 c-2 -7 4 -14 14 -17 10 -3 7 -4 -9
-4 -30 1 -47 33 -18 33 10 0 16 -6 13 -12z m44 -16 c-3 -7 -5 -2 -5 12 0 14 2
19 5 13 2 -7 2 -19 0 -25z m83 1 c0 -5 -8 -9 -17 -9 -15 0 -16 2 -3 10 10 6
11 10 3 10 -7 0 -13 5 -13 11 0 8 5 8 15 -1 8 -7 15 -16 15 -21z m110 11 c0
-11 -7 -20 -15 -20 -18 0 -19 12 -3 28 16 16 18 15 18 -8z m17 -12 c-3 -7 -5
-2 -5 12 0 14 2 19 5 13 2 -7 2 -19 0 -25z m102 8 c0 -12 -3 -15 -6 -8 -2 6
-12 12 -21 12 -15 0 -15 -2 -2 -10 13 -8 12 -10 -2 -10 -11 0 -18 7 -18 18 0
13 8 18 25 18 19 0 25 -5 24 -20z m71 -7 c0 -5 -8 -9 -17 -9 -15 0 -16 2 -3
10 10 6 11 10 3 10 -7 0 -13 5 -13 11 0 8 5 8 15 -1 8 -7 15 -16 15 -21z m210
19 c0 -4 -8 -8 -17 -8 -15 0 -16 -2 -3 -10 9 -6 10 -10 3 -10 -15 0 -26 17
-19 28 3 5 12 9 21 9 8 0 15 -4 15 -9z m17 -20 c-3 -7 -5 -2 -5 12 0 14 2 19
5 13 2 -7 2 -19 0 -25z m20 0 c-3 -7 -5 -2 -5 12 0 14 2 19 5 13 2 -7 2 -19 0
-25z m30 0 c-3 -7 -5 -2 -5 12 0 14 2 19 5 13 2 -7 2 -19 0 -25z m33 2 c5 0
11 5 13 10 3 6 4 5 3 -2 -1 -7 -10 -14 -19 -16 -12 -3 -17 3 -16 20 1 17 3 18
6 6 2 -10 8 -18 13 -18z m110 21 c0 -4 -11 -11 -25 -18 -21 -9 -25 -9 -25 6 0
11 8 17 25 17 14 0 25 -2 25 -5z m40 -22 c0 -5 -8 -9 -17 -9 -15 0 -16 2 -3
10 10 6 11 10 3 10 -7 0 -13 5 -13 11 0 8 5 8 15 -1 8 -7 15 -16 15 -21z
m-914 -1020 c60 -16 132 -75 168 -139 28 -49 31 -64 31 -136 0 -70 -4 -88 -30
-139 -91 -179 -330 -213 -472 -67 -162 166 -72 445 160 492 44 8 75 6 143 -11z
m-1366 -79 c0 -5 -18 -49 -39 -97 -43 -97 -60 -151 -53 -171 3 -10 7 -10 18
-1 21 17 26 6 8 -19 -18 -26 -37 -28 -54 -7 -10 12 -9 28 9 81 42 128 111 261
111 214z m1820 1 c0 -4 -18 -46 -39 -93 -60 -130 -76 -211 -35 -177 11 9 14 8
14 -4 0 -20 -27 -40 -45 -33 -25 9 -28 33 -10 89 37 113 115 262 115 218z
m550 -6 c18 -22 4 -48 -55 -104 -57 -52 -72 -88 -34 -78 13 3 19 1 16 -6 -2
-7 -13 -13 -24 -15 -17 -3 -25 -18 -42 -81 -12 -42 -21 -84 -21 -93 0 -9 -7
-18 -15 -22 -20 -7 -19 14 5 102 11 39 20 74 20 76 0 2 -9 6 -20 9 -30 8 -24
34 14 59 25 17 38 36 51 76 25 81 73 116 105 77z m634 -53 c-70 -154 -84 -199
-67 -215 3 -4 12 -2 20 4 21 18 15 -6 -7 -26 -24 -22 -50 -13 -50 18 0 53 102
293 119 282 7 -3 0 -28 -15 -63z m110 5 c-38 -74 -74 -173 -74 -203 0 -22 2
-23 20 -14 26 14 26 -2 0 -25 -26 -24 -50 -13 -50 24 0 57 101 288 120 276 6
-4 -1 -28 -16 -58z m-3094 -4 c0 -5 -9 -19 -20 -33 -15 -19 -20 -21 -20 -8 0
27 11 48 26 48 8 0 14 -3 14 -7z m2870 -53 c0 -11 -6 -20 -14 -20 -18 0 -29
16 -21 30 11 18 35 11 35 -10z m-2640 -66 c-15 -39 -13 -39 31 0 47 43 64 42
64 -2 l0 -31 30 28 c39 36 61 43 76 25 10 -12 9 -22 -4 -50 -24 -49 -23 -68 3
-54 24 13 26 3 3 -22 -18 -21 -34 -23 -50 -7 -8 8 -7 23 5 55 29 78 -14 72
-58 -9 -31 -56 -36 -61 -49 -53 -6 4 -5 23 4 54 26 86 -18 77 -66 -14 -24 -44
-33 -52 -43 -35 -6 9 19 103 36 134 14 27 29 11 18 -19z m598 0 l-4 -36 19 26
c33 46 83 25 57 -23 -12 -24 -35 -29 -27 -6 4 8 2 17 -3 20 -10 6 -43 -34 -60
-75 -12 -29 -39 -37 -31 -9 2 8 10 37 17 64 18 64 22 75 30 75 3 0 4 -16 2
-36z m1718 20 c-3 -9 -9 -28 -13 -42 -6 -25 -4 -24 25 10 18 19 41 38 52 41
24 6 42 -15 34 -39 -6 -15 -1 -14 22 7 35 32 56 40 74 29 13 -8 8 -37 -17 -99
-4 -11 1 -12 21 -7 25 6 26 5 14 -14 -14 -22 -42 -35 -58 -25 -13 8 -13 31 2
72 25 68 -21 51 -64 -23 -43 -78 -62 -69 -36 17 21 71 -15 62 -63 -14 -18 -29
-34 -54 -35 -56 -2 -1 -7 0 -13 3 -6 4 -4 24 5 58 24 79 33 98 45 98 6 0 8 -7
5 -16z m-2416 -3 c0 -5 -12 -12 -27 -16 -16 -3 -38 -16 -50 -27 -25 -24 -31
-68 -9 -68 14 0 76 58 76 72 0 4 7 8 16 8 12 0 14 -5 9 -17 -4 -10 -10 -29
-13 -42 -4 -21 -2 -22 19 -16 24 8 24 8 5 -14 -30 -33 -64 -26 -57 12 1 5 -12
-1 -29 -13 -60 -43 -105 2 -64 65 27 41 124 85 124 56z m440 2 c0 -5 -15 -15
-33 -23 -25 -12 -33 -22 -35 -48 -2 -22 2 -34 12 -38 25 -10 46 15 46 53 0 43
24 40 28 -3 4 -45 -30 -84 -74 -84 -45 0 -63 33 -44 81 17 40 101 92 100 62z
m76 -41 c-21 -41 -20 -62 3 -62 13 0 31 19 53 55 46 76 66 71 33 -8 -22 -52
-20 -60 12 -52 27 6 27 6 9 -14 -24 -27 -54 -27 -64 0 l-8 20 -18 -20 c-11
-12 -30 -21 -43 -21 -20 0 -23 5 -23 35 0 44 37 122 52 107 6 -6 4 -20 -6 -40z
m1284 43 c0 -2 -20 -13 -44 -24 -46 -20 -72 -52 -62 -77 9 -23 27 -16 68 27
42 44 59 45 40 4 -17 -37 -15 -47 8 -40 22 7 26 -5 8 -23 -18 -18 -49 -14 -55
8 -5 19 -5 19 -33 -1 -37 -28 -74 -22 -78 12 -5 46 73 117 131 119 9 0 17 -2
17 -5z m520 0 c0 -3 -17 -12 -37 -20 -50 -21 -73 -43 -73 -72 0 -36 28 -28 72
19 38 42 59 47 39 10 -18 -34 -14 -54 9 -47 26 8 26 -11 1 -25 -31 -16 -51
-12 -51 10 0 20 0 20 -29 -1 -38 -28 -75 -22 -79 12 -3 30 28 73 72 100 28 17
76 26 76 14z m372 -55 c-17 -53 -12 -71 13 -50 25 20 29 4 5 -20 -31 -31 -55
-22 -54 20 1 43 30 114 43 106 5 -4 3 -27 -7 -56z m416 33 c-2 -22 -14 -34
-53 -55 -41 -22 -47 -28 -31 -34 10 -4 27 -2 38 5 30 19 36 2 8 -19 -48 -37
-100 -21 -100 31 0 37 69 99 111 99 27 0 30 -3 27 -27z"/>
<path d="M3555 3677 c-43 -43 -52 -79 -34 -131 35 -101 177 -116 225 -24 48
93 -11 188 -117 188 -33 0 -47 -6 -74 -33z"/>
<path d="M2151 2529 c-256 -49 -301 -399 -66 -515 181 -88 395 45 395 246 0
170 -160 302 -329 269z m105 -180 c-51 -106 -61 -156 -33 -151 24 4 21 -15 -4
-28 -28 -15 -49 -6 -49 22 l0 23 -18 -21 c-37 -46 -85 -52 -97 -14 -13 41 47
110 108 125 39 10 33 -1 -13 -25 -42 -21 -65 -52 -56 -76 8 -21 30 -17 53 9
12 12 46 73 78 136 35 72 60 110 66 104 6 -6 -7 -44 -35 -104z m162 -66 c-2
-22 -14 -34 -53 -55 -41 -22 -47 -28 -31 -34 10 -4 27 -2 38 5 30 19 36 2 8
-19 -48 -37 -100 -21 -100 31 0 37 69 99 111 99 27 0 30 -3 27 -27z"/>
<path d="M2340 2263 c-12 -15 -17 -29 -11 -31 15 -5 61 28 61 44 0 23 -27 16
-50 -13z"/>
<path d="M3224 2395 c-19 -47 -18 -49 16 -25 32 23 41 60 14 60 -8 0 -22 -16
-30 -35z"/>
<path d="M3150 2285 c-8 -9 -8 -15 -2 -15 12 0 26 19 19 26 -2 2 -10 -2 -17
-11z"/>
<path d="M4110 2263 c-12 -15 -17 -29 -11 -31 15 -5 61 28 61 44 0 23 -27 16
-50 -13z"/>
</g>
</svg>
